<svg version="1.1" xmlns="http://www.w3.org/2000/svg" xmlns:xlink="http://www.w3.org/1999/xlink" x="0px" y="0px" viewBox="0 0 256 256" enable-background="new 0 0 256 256" xml:space="preserve">
<metadata> Svg Vector Icons : http://www.onlinewebfonts.com/icon </metadata>
<g><g><g><path fill="#000000" d="M212.6,210.1c5.4-5.6,10.2-11.5,14.3-17.9s7.6-13,10.4-19.9c2.8-7,5-14.2,6.4-21.6s2.2-15,2.2-22.7c0-7.4-0.7-14.6-2-21.7c-1.3-7.1-3.3-14-5.8-20.7c-2.6-6.7-5.7-13.1-9.5-19.2c-3.8-6.1-8.1-11.9-13-17.3l8.5-8.6l8.1,8.1c0.6,0.6,1.2,1,2,1.3c0.8,0.3,1.6,0.5,2.4,0.5c0.8,0,1.6-0.2,2.4-0.5c0.8-0.3,1.4-0.8,2-1.3c1.2-1.2,1.8-2.7,1.8-4.4s-0.6-3.2-1.8-4.4l-24.8-24.8c-1.2-1.2-2.7-1.8-4.4-1.8s-3.2,0.6-4.4,1.8c-1.2,1.2-1.8,2.7-1.8,4.4s0.6,3.2,1.8,4.4l8,8l-8.5,8.5c-5.5-4.8-11.3-9.1-17.4-12.9c-6.1-3.8-12.5-6.9-19.2-9.5c-6.7-2.6-13.6-4.5-20.7-5.8c-7.1-1.3-14.4-2-21.7-2c-7.4,0-14.6,0.7-21.7,2c-7.1,1.3-14,3.2-20.7,5.8c-6.7,2.6-13.1,5.8-19.2,9.5c-6.1,3.8-11.9,8.1-17.3,12.9l-8.5-8.5l8-8c1.2-1.2,1.8-2.7,1.8-4.4s-0.6-3.2-1.8-4.4c-1.2-1.2-2.7-1.8-4.4-1.8c-1.7,0-3.2,0.6-4.4,1.8L15,39.8c-1.2,1.2-1.8,2.7-1.8,4.4s0.6,3.2,1.8,4.4c0.6,0.6,1.2,1,2,1.3c0.8,0.3,1.6,0.5,2.4,0.5c0.8,0,1.6-0.2,2.4-0.5c0.8-0.3,1.4-0.8,2-1.3l8-8.1l8.6,8.6c-4.9,5.4-9.3,11.2-13,17.3c-3.8,6.1-6.9,12.5-9.5,19.2c-2.6,6.7-4.5,13.6-5.8,20.7c-1.3,7.1-2,14.4-2,21.7c0,7.7,0.7,15.2,2.2,22.7c1.4,7.4,3.6,14.6,6.4,21.6c2.8,6.9,6.3,13.6,10.4,19.9c4.1,6.4,8.9,12.3,14.2,17.9L18,235.4c-1.2,1.2-1.8,2.7-1.8,4.4c0,1.7,0.6,3.2,1.8,4.4c0.7,0.7,1.3,1.1,2.1,1.4c0.8,0.3,1.5,0.4,2.2,0.4c0.8,0,1.6-0.1,2.4-0.4c0.8-0.3,1.5-0.7,2.1-1.4l25.5-25.5c5.3,4.4,11,8.3,16.9,11.7c5.9,3.4,12,6.3,18.4,8.6c6.4,2.3,13,4,19.7,5.2s13.7,1.8,20.7,1.8c7,0,13.8-0.6,20.6-1.8s13.4-2.9,19.7-5.2c6.4-2.3,12.5-5.2,18.4-8.6c5.9-3.4,11.5-7.3,16.8-11.7l25.6,25.5c0.6,0.7,1.2,1.1,2,1.4c0.8,0.3,1.6,0.4,2.4,0.4c0.8,0,1.6-0.1,2.4-0.4c0.8-0.3,1.4-0.7,2-1.4c1.2-1.2,1.8-2.7,1.8-4.4s-0.6-3.2-1.8-4.4L212.6,210.1L212.6,210.1z M22.4,128.1c0-14.5,2.8-28.2,8.3-41.1c5.5-12.8,13.1-24,22.7-33.6S74.2,36.3,87,30.7c12.8-5.5,26.5-8.3,41.1-8.3c14.6,0,28.2,2.8,41.1,8.3c12.8,5.5,24,13.1,33.5,22.7c9.5,9.6,17.1,20.8,22.6,33.6c5.5,12.8,8.3,26.5,8.3,41.1c0,14.6-2.8,28.2-8.3,41.1c-5.5,12.8-13.1,24-22.6,33.5c-9.5,9.5-20.7,17.1-33.5,22.6c-12.8,5.5-26.5,8.3-41.1,8.3c-14.6,0-28.2-2.8-41.1-8.3c-12.8-5.5-24-13.1-33.6-22.6c-9.6-9.5-17.1-20.7-22.7-33.5C25.2,156.3,22.4,142.6,22.4,128.1L22.4,128.1z M197.9,87.7c-0.8-1.5-2-2.5-3.7-3c-1.7-0.4-3.3-0.2-4.8,0.7l-61.1,35.3L80.7,87.3c-1.4-1-3-1.3-4.7-1c-1.7,0.3-3,1.2-4.1,2.6c-1,1.4-1.3,2.9-1,4.6c0.3,1.7,1.2,3,2.6,4l50.8,35.7h0.1h0.1l0.1,0.1l0.1,0.1l0.1,0.1l0,0c0.1,0,0.1,0,0.2,0.1c0,0,0.1,0.1,0.2,0.1v0.1v0.1c0.1,0,0.2,0,0.2,0.1c0.1,0,0.2,0.1,0.2,0.1l0.1,0.1c0,0,0.1,0,0.2,0.1h0.1h0.1l0.1,0.1l0.1,0.1h0.1h0.1c0.1,0,0.1,0,0.2,0.1l0.1,0.1h0.1h0.1h0.1h0.2h0.1c0,0,0,0,0.1,0.1h0.2h0.1h0.2h0.2h0.1h0.1l0,0l0,0l0,0l0,0h0.3c0,0,0.1,0,0.4-0.1l0,0l0,0h0.3c0,0,0.1,0,0.3-0.1h0.1l0,0c0.1,0,0.2,0,0.3-0.1c0.1,0,0.2-0.1,0.3-0.1h0.1c0,0,0,0,0.1-0.1c0.1,0,0.2,0,0.3-0.1s0.2-0.1,0.3-0.2h0.1h0.1l0.1-0.1l0.1-0.1l64.5-37.2c1.5-0.9,2.5-2.2,3-3.8C199,90.7,198.8,89.1,197.9,87.7L197.9,87.7z"/></g></g></g>
</svg>