<svg width="24" height="24" viewBox="0 0 24 24" fill="none" xmlns="http://www.w3.org/2000/svg">
<path d="M12 24C18.6274 24 24 18.6274 24 12C24 5.37258 18.6274 0 12 0C5.37258 0 0 5.37258 0 12C0 18.6274 5.37258 24 12 24Z" fill="#627EEA"/>
<path d="M12 3V9.65412L17.6241 12.1672L12 3Z" fill="#C1CCF7"/>
<path d="M11.9999 3L6.375 12.1672L11.9999 9.65412V3Z" fill="white"/>
<path d="M12 16.4787V21L17.6279 13.2139L12 16.4787Z" fill="#C1CCF7"/>
<path d="M11.9999 21V16.4779L6.375 13.2139L11.9999 21Z" fill="white"/>
<path d="M12 15.4324L17.6241 12.1669L12 9.65527V15.4324Z" fill="#8198EE"/>
<path d="M6.375 12.1669L11.9999 15.4324V9.65527L6.375 12.1669Z" fill="#C1CCF7"/>
</svg>
