<svg version="1.1" xmlns="http://www.w3.org/2000/svg" x="0px" y="0px" viewBox="0 0 256 256"
    enable-background="new 0 0 256 256" xml:space="preserve">
<metadata> Svg Vector Icons : http://www.onlinewebfonts.com/icon </metadata>
    <g><g><path fill="#000000" d="M227.4,18.2H115.6c-10.3,0-18.6,8.4-18.6,18.6v37.3c0,3.4,2.8,6.2,6.2,6.2c3.4,0,6.2-2.8,6.2-6.2V36.8c0-3.4,2.8-6.2,6.2-6.2h93.9l-47.7,20.5c-8.5,3.7-15.2,13.8-15.2,23v118h-31c-3.4,0-6.2-2.8-6.2-6.2v-37.3c0-3.4-2.8-6.2-6.2-6.2s-6.2,2.8-6.2,6.2v37.3c0,10.3,8.4,18.6,18.6,18.6h31v18.6c0,5.4,2.2,9.9,6.1,12.5c2.2,1.4,4.7,2.1,7.3,2.1c2.1,0,4.4-0.5,6.6-1.4l64.2-27.5c8.5-3.7,15.2-13.8,15.2-23V36.8C246,26.6,237.6,18.2,227.4,18.2L227.4,18.2z M233.6,185.9c0,4.4-3.7,9.9-7.7,11.6L161.8,225c-1.2,0.5-2,0.5-2.2,0.3c-0.2-0.1-0.6-0.9-0.6-2.1V74.1c0-4.4,3.7-9.9,7.7-11.6L233,34.1c0.4,0.8,0.6,1.8,0.6,2.7L233.6,185.9L233.6,185.9z"/><path
        fill="#000000"
        d="M113.8,107L76.5,69.7c-2.4-2.4-6.4-2.4-8.8,0c-2.4,2.4-2.4,6.4,0,8.8l26.7,26.6H16.2c-3.4,0-6.2,2.8-6.2,6.2c0,3.4,2.8,6.2,6.2,6.2h78.2l-26.7,26.7c-2.4,2.4-2.4,6.4,0,8.8c1.2,1.2,2.8,1.8,4.4,1.8c1.6,0,3.2-0.6,4.4-1.8l37.2-37.3C116.2,113.3,116.2,109.4,113.8,107L113.8,107z" /></g></g>
</svg>