<svg version="1.1" xmlns="http://www.w3.org/2000/svg" x="0px" y="0px" viewBox="0 0 256 256"
    enable-background="new 0 0 256 256" xml:space="preserve">
<metadata> Svg Vector Icons : http://www.onlinewebfonts.com/icon </metadata>
    <g><g><g><path fill="#000000" d="M156.8,91.8c1.7,0,3.3-0.6,4.5-1.9c1.3-1.3,1.9-2.8,1.9-4.6v-51c0-5.3-1.9-9.8-5.6-13.6c-3.7-3.7-8.3-5.6-13.6-5.6H29.2c-5.3,0-9.9,1.9-13.6,5.6C11.9,24.5,10,29,10,34.3v153.1c0,4.7,1.5,9.4,4.6,14s6.7,7.8,11,9.6l65.9,28.3c1.1,0.5,2.2,0.9,3.4,1.1c1.2,0.3,2.3,0.4,3.4,0.4c1.4,0,2.7-0.2,4-0.6c1.3-0.4,2.5-0.9,3.6-1.7c2-1.3,3.5-3.1,4.6-5.4c1.1-2.2,1.6-4.7,1.6-7.5v-19.2H144c5.3,0,9.8-1.9,13.6-5.6c3.7-3.7,5.6-8.2,5.6-13.5v-51.1c0-1.7-0.6-3.3-1.9-4.5c-1.3-1.3-2.7-1.9-4.5-1.9c-1.8,0-3.4,0.6-4.6,1.9c-1.3,1.3-1.9,2.7-1.9,4.5v51.1c0,1.7-0.6,3.3-1.9,4.5c-1.3,1.3-2.7,1.9-4.5,1.9h-31.9V72.6c0-4.7-1.5-9.4-4.5-14c-3-4.6-6.7-7.8-11.1-9.7L47.5,28H144c1.7,0,3.3,0.6,4.5,1.9c1.3,1.3,1.9,2.7,1.9,4.5v51c0,1.8,0.6,3.4,1.9,4.6C153.4,91.2,154.9,91.8,156.8,91.8L156.8,91.8z M91.5,60.6c2,0.9,3.8,2.6,5.4,5s2.4,4.7,2.4,7v153.1c0,0.7-0.1,1.2-0.2,1.6c-0.1,0.4-0.3,0.6-0.4,0.7H98c0,0-0.5-0.1-1.5-0.4l-65.9-28.3c-2-0.8-3.8-2.5-5.4-4.9c-1.6-2.4-2.4-4.7-2.4-7V34.3c0-0.5,0.1-1,0.2-1.5c0.1-0.5,0.3-1,0.6-1.4L91.5,60.6L91.5,60.6z M244.1,106.3l-38.2-38.2c-1.3-1.3-2.7-1.9-4.5-1.9s-3.3,0.6-4.5,1.9c-1.3,1.3-1.9,2.7-1.9,4.5s0.6,3.3,1.9,4.5l27.4,27.4h-80.4c-1.7,0-3.3,0.6-4.5,1.9c-1.3,1.3-1.9,2.7-1.9,4.5s0.6,3.3,1.9,4.5c1.3,1.3,2.7,1.9,4.5,1.9h80.4l-27.4,27.4c-1.3,1.3-1.9,2.8-1.9,4.6c0,1.8,0.6,3.3,1.9,4.6c0.6,0.6,1.3,1,2,1.4c0.8,0.3,1.6,0.5,2.4,0.5s1.6-0.2,2.4-0.5c0.8-0.3,1.5-0.8,2-1.4l38.2-38.4c1.3-1.3,1.9-2.7,1.9-4.5C246,109.1,245.4,107.6,244.1,106.3L244.1,106.3z"/></g></g></g>
</svg>