<svg width="24" height="24" viewBox="0 0 24 24" fill="none" xmlns="http://www.w3.org/2000/svg">
    <path d="M16.375 1L19.375 4H12.875H6.375" stroke="#fff" stroke-width="2"
        stroke-linecap="round" stroke-linejoin="round" />
    <path d="M5.375 10L2.375 7L8.375 7" stroke="#fff" stroke-width="2" stroke-linecap="round"
        stroke-linejoin="round" />
    <path
        d="M15.375 17.1C16.5348 17.1 17.475 16.1598 17.475 15C17.475 13.8402 16.5348 12.9 15.375 12.9C14.2152 12.9 13.275 13.8402 13.275 15C13.275 16.1598 14.2152 17.1 15.375 17.1Z"
        stroke="#fff" stroke-width="1.5" stroke-linecap="round" stroke-linejoin="round" />
    <path
        d="M20.0841 16.9091C19.9994 17.101 19.9741 17.3139 20.0115 17.5204C20.049 17.7268 20.1474 17.9173 20.2941 18.0673L20.3323 18.1055C20.4506 18.2237 20.5445 18.364 20.6085 18.5185C20.6726 18.673 20.7055 18.8387 20.7055 19.0059C20.7055 19.1732 20.6726 19.3388 20.6085 19.4933C20.5445 19.6478 20.4506 19.7882 20.3323 19.9064C20.2141 20.0247 20.0737 20.1186 19.9192 20.1826C19.7647 20.2467 19.5991 20.2796 19.4318 20.2796C19.2646 20.2796 19.0989 20.2467 18.9444 20.1826C18.7899 20.1186 18.6496 20.0247 18.5314 19.9064L18.4932 19.8682C18.3432 19.7215 18.1527 19.6231 17.9463 19.5856C17.7399 19.5482 17.5269 19.5735 17.335 19.6582C17.1468 19.7388 16.9863 19.8728 16.8732 20.0435C16.7601 20.2143 16.6995 20.4143 16.6986 20.6191V20.7273C16.6986 21.0648 16.5645 21.3885 16.3259 21.6272C16.0872 21.8659 15.7635 22 15.4259 22C15.0884 22 14.7646 21.8659 14.526 21.6272C14.2873 21.3885 14.1532 21.0648 14.1532 20.7273V20.67C14.1483 20.4594 14.0801 20.2551 13.9575 20.0837C13.8349 19.9123 13.6636 19.7818 13.4659 19.7091C13.274 19.6244 13.0611 19.5991 12.8546 19.6365C12.6482 19.674 12.4577 19.7724 12.3077 19.9191L12.2695 19.9573C12.1513 20.0756 12.011 20.1695 11.8565 20.2335C11.702 20.2976 11.5363 20.3305 11.3691 20.3305C11.2018 20.3305 11.0362 20.2976 10.8817 20.2335C10.7272 20.1695 10.5868 20.0756 10.4686 19.9573C10.3503 19.8391 10.2564 19.6987 10.1924 19.5442C10.1283 19.3897 10.0954 19.2241 10.0954 19.0568C10.0954 18.8896 10.1283 18.7239 10.1924 18.5694C10.2564 18.4149 10.3503 18.2746 10.4686 18.1564L10.5068 18.1182C10.6535 17.9682 10.7519 17.7777 10.7894 17.5713C10.8268 17.3649 10.8015 17.1519 10.7168 16.96C10.6362 16.7718 10.5022 16.6113 10.3315 16.4982C10.1607 16.3851 9.96068 16.3245 9.75591 16.3236H9.64773C9.31018 16.3236 8.98646 16.1895 8.74777 15.9509C8.50909 15.7122 8.375 15.3885 8.375 15.0509C8.375 14.7134 8.50909 14.3896 8.74777 14.151C8.98646 13.9123 9.31018 13.7782 9.64773 13.7782H9.705C9.91563 13.7733 10.1199 13.7051 10.2913 13.5825C10.4627 13.4599 10.5932 13.2886 10.6659 13.0909C10.7506 12.899 10.7759 12.6861 10.7385 12.4796C10.701 12.2732 10.6026 12.0827 10.4559 11.9327L10.4177 11.8945C10.2994 11.7763 10.2055 11.636 10.1415 11.4815C10.0774 11.327 10.0445 11.1613 10.0445 10.9941C10.0445 10.8268 10.0774 10.6612 10.1415 10.5067C10.2055 10.3522 10.2994 10.2118 10.4177 10.0936C10.5359 9.9753 10.6763 9.88143 10.8308 9.81738C10.9853 9.75333 11.1509 9.72036 11.3182 9.72036C11.4854 9.72036 11.6511 9.75333 11.8056 9.81738C11.9601 9.88143 12.1004 9.9753 12.2186 10.0936L12.2568 10.1318C12.4068 10.2785 12.5973 10.3769 12.8037 10.4144C13.0101 10.4518 13.2231 10.4265 13.415 10.3418H13.4659C13.6541 10.2612 13.8146 10.1272 13.9277 9.95648C14.0408 9.78575 14.1015 9.58568 14.1023 9.38091V9.27273C14.1023 8.93518 14.2364 8.61146 14.475 8.37277C14.7137 8.13409 15.0375 8 15.375 8C15.7125 8 16.0363 8.13409 16.275 8.37277C16.5136 8.61146 16.6477 8.93518 16.6477 9.27273V9.33C16.6485 9.53477 16.7092 9.73484 16.8223 9.90557C16.9354 10.0763 17.0959 10.2102 17.2841 10.2909C17.476 10.3756 17.6889 10.4009 17.8954 10.3635C18.1018 10.326 18.2923 10.2276 18.4423 10.0809L18.4805 10.0427C18.5987 9.92439 18.739 9.83052 18.8935 9.76647C19.048 9.70242 19.2137 9.66945 19.3809 9.66945C19.5482 9.66945 19.7138 9.70242 19.8683 9.76647C20.0228 9.83052 20.1632 9.92439 20.2814 10.0427C20.3997 10.1609 20.4936 10.3013 20.5576 10.4558C20.6217 10.6103 20.6546 10.7759 20.6546 10.9432C20.6546 11.1104 20.6217 11.2761 20.5576 11.4306C20.4936 11.5851 20.3997 11.7254 20.2814 11.8436L20.2432 11.8818C20.0965 12.0318 19.9981 12.2223 19.9606 12.4287C19.9232 12.6351 19.9485 12.8481 20.0332 13.04V13.0909C20.1138 13.2791 20.2478 13.4396 20.4185 13.5527C20.5893 13.6658 20.7893 13.7265 20.9941 13.7273H21.1023C21.4398 13.7273 21.7635 13.8614 22.0022 14.1C22.2409 14.3387 22.375 14.6625 22.375 15C22.375 15.3375 22.2409 15.6613 22.0022 15.9C21.7635 16.1386 21.4398 16.2727 21.1023 16.2727H21.045C20.8402 16.2735 20.6402 16.3342 20.4694 16.4473C20.2987 16.5604 20.1648 16.7209 20.0841 16.9091Z"
        stroke="#fff" stroke-width="1.5" stroke-linecap="round" stroke-linejoin="round" />
</svg>
