<svg width="16" height="16" viewBox="0 0 16 16" fill="none" xmlns="http://www.w3.org/2000/svg">
<path fill-rule="evenodd" clip-rule="evenodd" d="M10.1543 5.40408C12.7774 5.40434 14.9043 7.53089 14.9043 10.1541C14.904 12.777 12.7773 14.9038 10.1543 14.9041C7.5311 14.9041 5.40455 12.7772 5.40429 10.1541C5.40429 7.53073 7.53094 5.40408 10.1543 5.40408ZM10.1543 6.90408C8.35936 6.90408 6.90429 8.35915 6.90429 10.1541C6.90455 11.9488 8.35953 13.4041 10.1543 13.4041C11.9488 13.4038 13.404 11.9486 13.4043 10.1541C13.4043 8.35931 11.949 6.90434 10.1543 6.90408ZM10.083 7.91677C10.4972 7.91677 10.833 8.25256 10.833 8.66677V9.68923L11.9463 10.8035C12.2392 11.0964 12.2392 11.5711 11.9463 11.864C11.6533 12.1563 11.1784 12.1567 10.8857 11.864L9.55272 10.5301C9.41225 10.3895 9.33308 10.1985 9.333 9.99978V8.66677C9.333 8.25267 9.66893 7.91695 10.083 7.91677ZM7.27148 4.89138C6.58061 5.27061 5.97279 5.78201 5.48144 6.39138H3.14452L3.70995 6.95681C4.00225 7.24966 4.00241 7.72461 3.70995 8.01736C3.41712 8.3099 2.94125 8.30992 2.64843 8.01736L0.802725 6.17166C0.588704 5.95738 0.524109 5.63419 0.639639 5.35427C0.755711 5.07419 1.02983 4.89152 1.333 4.89138H7.27148ZM10.6484 0.802515C10.9412 0.509785 11.4171 0.509893 11.71 0.802515L13.5557 2.64822C13.77 2.86254 13.8344 3.1855 13.7187 3.4656C13.6027 3.74586 13.3287 3.92849 13.0254 3.92849H4.41015C3.99601 3.9284 3.66015 3.59265 3.66015 3.17849C3.66057 2.76469 3.99627 2.42858 4.41015 2.42849H11.2139L10.6484 1.86306C10.3561 1.57021 10.356 1.09526 10.6484 0.802515Z" fill="white"/>
</svg>
